<?xml version="1.0" encoding="UTF-8"?><svg id="a" xmlns="http://www.w3.org/2000/svg" viewBox="0 0 60 53"><defs><style>.b,.c{fill:#414141;}.c{fill-rule:evenodd;}</style></defs><g><polyline class="c" points="35.159 16.444 30.408 6.784 34.187 18.247 35.159 16.444"/><polyline class="c" points="29.926 6.784 28.237 11.973 28.929 13.102 29.926 10.048 33.19 20.094 33.846 18.869 29.926 6.784"/><polyline class="c" points="26.295 15.29 15.636 16.821 27.704 16.768 26.295 15.29"/><polyline class="c" points="15.488 17.276 19.898 20.478 21.193 20.172 18.585 18.282 29.156 18.282 28.193 17.276 15.488 17.276"/><polyline class="c" points="22.453 23.357 20.616 33.972 24.291 22.474 22.453 23.357"/><polyline class="c" points="21.01 34.252 25.42 31.041 25.533 29.719 22.926 31.61 26.19 21.563 24.938 22.168 21.01 34.252"/><polyline class="c" points="28.937 29.5 38.458 34.523 28.666 27.479 28.937 29.5"/><polyline class="c" points="38.852 34.243 37.163 29.054 35.938 28.547 36.936 31.61 28.386 25.397 28.57 26.779 38.852 34.243"/><polyline class="c" points="36.787 25.239 44.513 17.731 34.783 24.872 36.787 25.239"/><polyline class="c" points="44.365 17.276 38.913 17.276 38.047 18.282 41.267 18.282 32.718 24.495 34.092 24.74 44.365 17.276"/></g><g><path class="b" d="m4.528,41.96l.932.296c-.143.52-.381.905-.713,1.157-.332.252-.754.378-1.265.378-.633,0-1.152-.216-1.559-.648-.407-.432-.61-1.022-.61-1.771,0-.792.204-1.408.613-1.846s.947-.658,1.614-.658c.582,0,1.055.172,1.419.517.216.203.379.496.487.876l-.952.228c-.056-.247-.174-.442-.353-.584-.178-.143-.396-.214-.65-.214-.354,0-.64.126-.859.38s-.329.664-.329,1.23c0,.602.108,1.031.324,1.286.217.255.498.383.845.383.255,0,.475-.082.659-.244.184-.163.315-.418.396-.767Z"/><path class="b" d="m6.355,41.36c0-.485.072-.892.218-1.221.108-.243.256-.46.443-.653.187-.193.392-.335.615-.429.296-.125.639-.188,1.026-.188.701,0,1.262.218,1.684.653.421.435.631,1.04.631,1.815,0,.768-.209,1.37-.626,1.804-.418.434-.977.651-1.676.651-.708,0-1.271-.216-1.688-.648-.418-.432-.627-1.026-.627-1.784Zm.99-.032c0,.539.125.947.374,1.226.248.278.564.417.948.417s.697-.138.942-.414c.246-.276.369-.69.369-1.242,0-.545-.12-.953-.359-1.221-.239-.268-.557-.402-.952-.402s-.716.136-.958.407c-.243.272-.364.682-.364,1.229Z"/><path class="b" d="m11.976,43.711v-4.761h1.438l.864,3.248.854-3.248h1.442v4.761h-.894v-3.748l-.944,3.748h-.926l-.941-3.748v3.748h-.894Z"/><path class="b" d="m17.795,43.711v-4.761h1.543c.584,0,.966.024,1.143.072.273.071.502.227.686.466s.276.548.276.927c0,.292-.054.538-.159.737-.106.199-.241.356-.404.469-.164.114-.33.189-.499.226-.229.045-.562.068-.997.068h-.626v1.796h-.962Zm.962-3.955v1.351h.525c.379,0,.633-.025.761-.075.127-.05.228-.127.3-.233.072-.106.108-.229.108-.371,0-.173-.051-.316-.152-.428-.102-.113-.23-.183-.386-.211-.115-.021-.346-.032-.692-.032h-.464Z"/><path class="b" d="m26.297,43.711h-1.045l-.416-1.082h-1.903l-.393,1.082h-1.02l1.854-4.761h1.016l1.906,4.761Zm-1.77-1.883l-.656-1.767-.643,1.767h1.299Z"/><path class="b" d="m27.082,43.711v-4.761h.936l1.948,3.179v-3.179h.894v4.761h-.965l-1.919-3.104v3.104h-.894Z"/><path class="b" d="m33.391,43.711v-2.003l-1.744-2.757h1.127l1.12,1.884,1.098-1.884h1.107l-1.75,2.764v1.997h-.958Z"/><path class="b" d="m38.846,43.711v-4.761h.936l1.948,3.179v-3.179h.894v4.761h-.965l-1.919-3.104v3.104h-.894Z"/><path class="b" d="m48.198,43.711h-1.045l-.416-1.082h-1.903l-.393,1.082h-1.02l1.854-4.761h1.016l1.906,4.761Zm-1.77-1.883l-.656-1.767-.643,1.767h1.299Z"/><path class="b" d="m48.961,43.711v-4.761h1.438l.864,3.248.854-3.248h1.442v4.761h-.894v-3.748l-.944,3.748h-.926l-.941-3.748v3.748h-.894Z"/><path class="b" d="m54.779,43.711v-4.761h3.53v.806h-2.568v1.055h2.39v.802h-2.39v1.295h2.659v.802h-3.621Z"/></g></svg>